<?xml version="1.0" encoding="UTF-8"?>
<svg xmlns="http://www.w3.org/2000/svg" viewBox="0 0 1454.98 1453.28">
  <defs>
    <style>
      .cls-1 {
        fill: #067a69;
      }

      .cls-2 {
        fill: #fff;
      }

      .cls-3 {
        fill: none;
      }
    </style>
  </defs>
  <g id="_Слой_1" data-name="Слой_1">
    <rect class="cls-1" width="1454.98" height="1453.28"/>
  </g>
  <g id="_Слой_2" data-name="Слой_2">
    <g>
      <circle class="cls-3" cx="1009.97" cy="423.29" r="5.29"/>
      <path class="cls-2" d="M1095.27,843.86c-24.73-32.7-49.52-60.43-72.44-83.56-42.52-37.63-85.04-75.26-127.56-112.89-25.27-14.51-61.53-31.8-107.56-43.11-50.74-12.46-94.68-13.07-125.33-11.11-21.41.55-46.88,2.77-75.11,8.44-30.4,6.11-56.38,14.68-77.33,23.11-12.46,4.38-26.68,10.38-41.78,18.67-19.87,10.91-35.79,22.81-48,33.33-12.36,9.11-26.56,21.07-40.89,36.44-16.26,17.45-28.22,34.53-36.89,48.89,1.78,5.33,3.56,10.67,5.33,16l91.56-62.22c-26.42,27.99-58.2,66.93-87.11,117.78-27.66,48.65-44.54,93.87-55.11,129.78,23.41,22.52,46.81,45.04,70.22,67.56,33.33-36.27,92.72-90.86,181.78-127.56,46.58-19.19,89.47-28.62,124-33.33,53.93,2.22,107.85,4.44,161.78,6.67,32.32,6.7,73.14,18.48,117.33,40,62.52,30.44,107.09,68.35,135.56,96.89l70.22-73.78c-16.37-29.33-36.94-61.98-62.67-96Z"/>
      <path class="cls-2" d="M1005.71,702.89c9.29-12.94,15.54-18.68,25.5-33.5,5.07-7.55,8.8-14.01,11.17-18.31,2.39-6.58,4.73-14.35,6.5-23.19,2.04-10.17,2.85-19.37,3.06-27.14.07-6.27-.27-13.56-1.47-21.61-1.52-10.2-4.01-18.93-6.53-25.94l-20.44-36.78c-7.11-15.11-14.22-30.22-21.33-45.33-1.88-4.45-2.04-8.15-1.94-10.28.18-4.11,1.41-5.61,1.83-6.08,1.18-1.31,2.65-1.84,3.56-2.08,3.56-1.19,7.11-2.37,10.67-3.56,1.62-2.42,3.95-5.35,7.19-8.19,1.95-1.71,3.86-3.07,5.58-4.14l28.56-1.11-.44-6.56c-10.85-2.52-21.7-5.04-32.56-7.56-1.25-1.88-3.24-4.41-6.22-6.81-2.49-2-4.91-3.27-6.78-4.08-1.19-.48-2.76-.98-4.64-1.25-2.66-.38-4.92-.15-6.47.14-1.81.78-3.63,1.56-5.44,2.33-3.05,1.56-8.08,4.64-12.42,10.28-6.48,8.41-7.41,17.3-7.58,20.83-.71,6.09-1.06,14.13.17,23.42,1.39,10.54,4.33,19.07,6.94,25.14,9.7,19.59,19.41,39.19,29.11,58.78,2.65,6.88,5.4,16.05,6.69,27.08.98,8.33.9,15.72.42,21.81-1.18,5.77-3.32,13.32-7.42,21.53-4.85,9.71-10.65,16.8-15.14,21.47-5.42,5.19-12.6,11.19-21.69,16.86-9.52,5.94-18.46,9.86-25.75,12.47-.95.39-2.43.93-4.29,1.4-2.26.57-2.72.42-5.17.96-3.88.85-4.24,1.55-5.77,1.36-1.26-.16-2.98-.88-4.86-3.48-3.01-1.12-6.02-2.23-9.03-3.35,23.26,20.52,46.52,41.04,69.78,61.56,6.23-11.88,12.26-20.95,16.67-27.08ZM1009.97,418c2.92,0,5.29,2.37,5.29,5.29s-2.37,5.29-5.29,5.29-5.29-2.37-5.29-5.29,2.37-5.29,5.29-5.29Z"/>
    </g>
  </g>
</svg>